<svg xmlns="http://www.w3.org/2000/svg" xmlns:xlink="http://www.w3.org/1999/xlink" viewBox="0 0 924.74418 953.53029">
  <defs>
    <linearGradient id="linear-gradient" x1="402.65609" y1="808.32096" x2="396.65561" y2="-114.12995" gradientUnits="userSpaceOnUse">
      <stop offset="0" stop-color="#cfd6dd"/>
      <stop offset="1" stop-color="#fff"/>
    </linearGradient>
    <clipPath id="clip-path" transform="translate(0 -0.00001)">
      <rect y="0.00001" width="799.99999" height="799.99999" fill="none"/>
    </clipPath>
    <linearGradient id="linear-gradient-2" x1="859.73966" y1="117.4039" x2="862.72002" y2="510.76598" gradientTransform="translate(-792.662 919.26009) rotate(-45) scale(1.36995 0.99999)" gradientUnits="userSpaceOnUse">
      <stop offset="0" stop-color="#b3b3b3"/>
      <stop offset="0.77041" stop-color="#fff"/>
    </linearGradient>
    <radialGradient id="radial-gradient" cx="183.89977" cy="355.62962" r="226.31591" gradientUnits="userSpaceOnUse">
      <stop offset="0.2602" stop-color="#36b649"/>
      <stop offset="0.7602" stop-color="#57c965"/>
    </radialGradient>
    <radialGradient id="radial-gradient-2" cx="165.58073" cy="300.75938" r="138.83334" gradientUnits="userSpaceOnUse">
      <stop offset="0.21939" stop-color="#e7e7e7"/>
      <stop offset="0.88265" stop-color="#fcfcfc"/>
    </radialGradient>
    <radialGradient id="radial-gradient-3" cx="167.04743" cy="271.67659" r="62.10871" gradientUnits="userSpaceOnUse">
      <stop offset="0.21939" stop-color="#e7e7e7"/>
      <stop offset="0.88265" stop-color="#fff"/>
    </radialGradient>
    <linearGradient id="linear-gradient-3" x1="968.13235" y1="267.31198" x2="971.11271" y2="660.67405" xlink:href="#linear-gradient-2"/>
    <radialGradient id="radial-gradient-4" cx="363.57026" cy="333.86367" r="233.12205" gradientUnits="userSpaceOnUse">
      <stop offset="0.09694" stop-color="#ffd879"/>
      <stop offset="0.15387" stop-color="#fccb76"/>
      <stop offset="0.25828" stop-color="#f5aa6c"/>
      <stop offset="0.39756" stop-color="#e9755e"/>
      <stop offset="0.44898" stop-color="#e45f58"/>
      <stop offset="0.67857" stop-color="#d22a9c"/>
      <stop offset="1" stop-color="#6968df"/>
    </radialGradient>
    <linearGradient id="linear-gradient-4" x1="1076.78312" y1="414.74515" x2="1079.76347" y2="808.10722" xlink:href="#linear-gradient-2"/>
    <radialGradient id="radial-gradient-5" cx="607.99014" cy="295.57911" r="127.1925" gradientUnits="userSpaceOnUse">
      <stop offset="0.16837" stop-color="#c2181e"/>
      <stop offset="0.76531" stop-color="#de2925"/>
    </radialGradient>
    <linearGradient id="linear-gradient-5" x1="755.23479" y1="262.25102" x2="758.21514" y2="655.6131" xlink:href="#linear-gradient-2"/>
    <linearGradient id="linear-gradient-6" x1="863.79884" y1="414.2808" x2="866.77919" y2="807.64261" xlink:href="#linear-gradient-2"/>
    <radialGradient id="radial-gradient-6" cx="401.335" cy="562.47169" r="236.93599" gradientUnits="userSpaceOnUse">
      <stop offset="0" stop-color="#3b5998"/>
      <stop offset="0.30102" stop-color="#3b5998"/>
      <stop offset="1" stop-color="#5f83cf"/>
    </radialGradient>
    <linearGradient id="linear-gradient-7" x1="972.19153" y1="558.06066" x2="975.17188" y2="951.4228" xlink:href="#linear-gradient-2"/>
    <radialGradient id="radial-gradient-7" cx="604.45136" cy="535.86061" r="225.67115" gradientUnits="userSpaceOnUse">
      <stop offset="0.09184" stop-color="#faf707"/>
      <stop offset="0.72959" stop-color="#fffc00"/>
    </radialGradient>
    <linearGradient id="linear-gradient-8" x1="650.79843" y1="406.50325" x2="653.77878" y2="799.86507" xlink:href="#linear-gradient-2"/>
    <radialGradient id="radial-gradient-8" cx="118.64089" cy="742.44761" r="173.72393" xlink:href="#radial-gradient-2"/>
    <clipPath id="clip-path-2" transform="translate(0 -0.00001)">
      <circle cx="189.854" cy="637.63285" r="63.4795" fill="none"/>
    </clipPath>
    <linearGradient id="linear-gradient-9" x1="634.30824" y1="456.37066" x2="635.13445" y2="565.41819" gradientTransform="translate(-762.5087 889.10429) rotate(-45) scale(1.32187 0.99999)" xlink:href="#linear-gradient-2"/>
    <linearGradient id="linear-gradient-10" x1="573.20081" y1="-111.63358" x2="573.87288" y2="-22.93077" gradientTransform="translate(35.2179 890.33609) rotate(-45) scale(0.54377 0.4756)" xlink:href="#linear-gradient-2"/>
    <linearGradient id="linear-gradient-11" x1="759.19112" y1="553.58288" x2="762.17147" y2="946.94468" xlink:href="#linear-gradient-2"/>
    <linearGradient id="linear-gradient-12" x1="867.58381" y1="701.36961" x2="870.56416" y2="1094.73142" xlink:href="#linear-gradient-2"/>
  </defs>
  <title>335 [Converted]</title>
  <g style="isolation: isolate">
    <g id="Layer_1" data-name="Layer 1">
      <rect width="799.99999" height="799.99999" fill="url(#linear-gradient)"/>
      <g>
        <g>
          <path d="M117.4458,86.01321a13.96125,13.96125,0,0,1-5.5425-3.269,7.14262,7.14262,0,0,1-2.122-5.2603,7.53934,7.53934,0,0,1,12.8545-5.311,9.233,9.233,0,0,1,2.0922,3.8423l-3.7822,1.4887a7.32733,7.32733,0,0,0-1.2471-2.414,3.41176,3.41176,0,0,0-4.7675.0102,3.22533,3.22533,0,0,0-.9859,2.3838,3.258,3.258,0,0,0,.9859,2.3936,10.86445,10.86445,0,0,0,3.0576,1.9917,15.82557,15.82557,0,0,1,6.417,3.8623,9.57514,9.57514,0,0,1,2.9575,7.081,10.02875,10.02875,0,0,1-17.1397,7.1011,11.2629,11.2629,0,0,1-2.977-6.4976L111.29,91.9473q.3816,3.561,1.8707,5.04931a5.89611,5.89611,0,0,0,8.3286-8.3481A12.22086,12.22086,0,0,0,117.4458,86.01321Z" transform="translate(0 -0.00001)" fill="#1a1a1a"/>
          <path d="M159.0264,74.74811A16.46338,16.46338,0,1,1,147.3789,69.92,15.87165,15.87165,0,0,1,159.0264,74.74811Zm-11.6475-.624a12.27559,12.27559,0,0,0-8.6699,20.9614,12.27581,12.27581,0,0,0,17.3506-17.3706A11.82767,11.82767,0,0,0,147.3789,74.12411Z" transform="translate(0 -0.00001)" fill="#1a1a1a"/>
          <path d="M194.311,94.8643l3.1182,2.79641q-5.71365,5.21039-12.0903,5.2099a16.4437,16.4437,0,0,1-11.6275-28.0625,15.8066,15.8066,0,0,1,11.6275-4.8276q6.3771,0,12.0903,5.21l-3.1182,2.8364a13.41453,13.41453,0,0,0-8.9721-3.8223,12.24044,12.24044,0,0,0-8.6402,20.9014,11.79579,11.79579,0,0,0,8.6402,3.5806A13.41259,13.41259,0,0,0,194.311,94.8643Z" transform="translate(0 -0.00001)" fill="#1a1a1a"/>
          <path d="M207.0044,70.3423v32.18651h-4.1641V70.3423Z" transform="translate(0 -0.00001)" fill="#1a1a1a"/>
          <path d="M225.4111,70.3423l11.7081,32.18651h-4.4258l-4.1441-11.3857H220.02l-4.124,11.3857h-4.4458l11.708-32.18651Zm1.6294,16.63621-2.7558-7.5434-2.7359,7.5434Z" transform="translate(0 -0.00001)" fill="#1a1a1a"/>
          <path d="M241.1421,102.52881V70.3423h4.1646V98.34481H256.813v4.184Z" transform="translate(0 -0.00001)" fill="#1a1a1a"/>
          <path d="M280.6714,70.3423l10.4404,18.04451L301.5122,70.3423h3.8018v32.18651h-4.1641V79.274l-10.0381,17.3808L281.0332,79.274v23.2548h-4.164V70.3423Z" transform="translate(0 -0.00001)" fill="#1a1a1a"/>
          <path d="M329.6753,70.3423v4.16411H316.499V84.3433h13.1763v4.16451H316.499v9.837h13.1763v4.184H312.335V70.3423Z" transform="translate(0 -0.00001)" fill="#1a1a1a"/>
          <path d="M338.26515,70.3423q7.84492.04037,12.231,4.44581a16.513,16.513,0,0,1,0,23.2949q-4.3857,4.40565-12.231,4.4458H335.207V70.3423Zm1.10645,4.24461v23.7173a10.9943,10.9943,0,0,0,8.147-3.1982,12.2882,12.2882,0,0,0,0-17.3408A11.03226,11.03226,0,0,0,339.3716,74.58691Z" transform="translate(0 -0.00001)" fill="#1a1a1a"/>
          <path d="M364.9194,70.3423v32.18651h-4.164V70.3423Z" transform="translate(0 -0.00001)" fill="#1a1a1a"/>
          <path d="M383.3262,70.3423l11.7075,32.18651h-4.4253l-4.144-11.3857h-8.5298l-4.1236,11.3857h-4.4458L381.0733,70.3423Zm1.6294,16.63621-2.7559-7.5434-2.7358,7.5434Z" transform="translate(0 -0.00001)" fill="#1a1a1a"/>
        </g>
        <g>
          <path d="M415.3721,70.3423l12.0898,20.92141L439.5313,70.3423h2.0722l-.0801.14061v32.0459h-1.8105V73.62111L427.4619,94.8243,415.1904,73.62111v28.9077h-1.8105V70.48291l-.0801-.14061Z" transform="translate(0 -0.00001)" fill="#1a1a1a"/>
          <path d="M468.9619,102.52881h-1.8105v-4.0234a13.47232,13.47232,0,0,1-1.1465,1.3481,11.0542,11.0542,0,1,1,0-15.6308,13.5925,13.5925,0,0,1,1.1465,1.34759V82.77441h1.8105Zm-1.8105-8.6904v-3.5806a9.03846,9.03846,0,1,0,0,3.5806Z" transform="translate(0 -0.00001)" fill="#1a1a1a"/>
        </g>
        <path d="M474.9971,82.77441h1.8105V86.375a11.63087,11.63087,0,0,1,1.3076-1.5488,7.52889,7.52889,0,0,1,4.9082-2.5146v1.9716a5.57429,5.57429,0,0,0-3.54,1.9112,8.69591,8.69591,0,0,0-2.6758,6.1352v10.1992h-1.8105Z" transform="translate(0 -0.00001)" fill="#1a1a1a"/>
        <path d="M497.085,82.77441l-4.8682,6.0347,7.7647,13.7197h-2.253l-6.6982-12.271-1.7705,2.1924v10.0786h-1.8106v-28.163h1.8106v15.1879l5.4912-6.7793Z" transform="translate(0 -0.00001)" fill="#1a1a1a"/>
        <g>
          <path d="M507.043,98.82721a8.702,8.702,0,0,0,6.0752,2.3335,8.79693,8.79693,0,0,0,6.457-2.6753q.34275-.342.6445-.70411l1.9102.68411a11.43386,11.43386,0,0,1-1.1865,1.3881,11.0383,11.0383,0,1,1-.9658-16.5161q.48331.4029.9658.8853c.1211.12059.2343.2417.3418.3623l-1.3672,1.3677Zm11.5469-14.1016a9.128,9.128,0,0,0-12.7745,12.7739Z" transform="translate(0 -0.00001)" fill="#1a1a1a"/>
          <path d="M529.77439,82.77441v-8.4086h1.8106v8.4086h4.0234V84.585H531.585v17.9438h-1.8106V84.585H525.751v-1.8106Z" transform="translate(0 -0.00001)" fill="#1a1a1a"/>
          <path d="M543.02149,76.29691a1.70969,1.70969,0,0,1,.5332,1.2671,1.73178,1.73178,0,0,1-.5332,1.2876,1.82161,1.82161,0,0,1-2.55469,0,1.73177,1.73177,0,0,1-.53321-1.2876,1.70967,1.70967,0,0,1,.53321-1.2671,1.82161,1.82161,0,0,1,2.55469,0Zm-.3721,6.4775v19.7544h-1.8105V82.77441Z" transform="translate(0 -0.00001)" fill="#1a1a1a"/>
          <path d="M550.89749,87.17971v15.3491h-1.8106V82.77441h1.8106v1.2671a7.92142,7.92142,0,0,1,5.7529-2.4541,7.60427,7.60427,0,0,1,7.9463,7.7246v13.2168h-1.8106V89.47321a5.7918,5.7918,0,0,0-1.82029-4.29491,6.14473,6.14473,0,0,0-8.62011-.03029A6.78465,6.78465,0,0,0,550.89749,87.17971Z" transform="translate(0 -0.00001)" fill="#1a1a1a"/>
          <path d="M590.084,98.606a15.61848,15.61848,0,0,1-1.0859,1.2475,11.03426,11.03426,0,1,1,0-15.6308,13.71351,13.71351,0,0,1,1.1464,1.34759V82.77441h1.8106v15.3487a10.36655,10.36655,0,0,1-3.1582,7.6045,11.04926,11.04926,0,0,1-15.6309,0,11.44271,11.44271,0,0,1-1.1865-1.3882l1.9111-.68411q.30181.36256.6436.70411A9.13032,9.13032,0,0,0,590.084,98.606Zm.04-8.44871a9.02611,9.02611,0,1,0,0,3.82221Z" transform="translate(0 -0.00001)" fill="#1a1a1a"/>
        </g>
        <path d="M614.12309,91.3643v11.16451h-1.8106V70.3423h8.4492a10.64935,10.64935,0,0,1,6.2559,3.07771,10.51119,10.51119,0,0,1-7.4229,17.94429Zm0-19.19139v17.3608h5.4716a8.6804,8.6804,0,0,0,0-17.3608Z" transform="translate(0 -0.00001)" fill="#1a1a1a"/>
        <path d="M653.69239,102.52881H651.8818v-4.0234a13.4592,13.4592,0,0,1-1.14641,1.3481,11.0542,11.0542,0,1,1,0-15.6308,13.57915,13.57915,0,0,1,1.14641,1.34759V82.77441h1.81059Zm-1.81059-8.6904v-3.5806a9.03869,9.03869,0,1,0,0,3.5806Z" transform="translate(0 -0.00001)" fill="#1a1a1a"/>
        <path d="M676.666,97.7813l1.9102.68411a11.44321,11.44321,0,0,1-1.1865,1.3881,11.0542,11.0542,0,1,1,0-15.6308,12.4241,12.4241,0,0,1,1.1865,1.3682l-1.9102.7041q-.30165-.36256-.6445-.72471a9.13285,9.13285,0,1,0,0,12.91511Q676.36424,98.14341,676.666,97.7813Z" transform="translate(0 -0.00001)" fill="#1a1a1a"/>
        <path d="M692.73829,82.77441l-4.8682,6.0347,7.76471,13.7197h-2.253l-6.69821-12.271-1.7705,2.1924v10.0786h-1.8105v-28.163h1.8105v15.1879l5.4912-6.7793Z" transform="translate(0 -0.00001)" fill="#1a1a1a"/>
      </g>
      <g clip-path="url(#clip-path)">
        <g>
          <g>
            <polygon points="504.224 392.225 349.734 546.707 109.337 306.321 132.893 171.342 263.831 151.838 504.224 392.225" fill="url(#linear-gradient-2)" style="mix-blend-mode: multiply"/>
            <g>
              <path d="M277.8125,284.1031a36.12972,36.12972,0,0,1-36.1328,36.1328H138.0313a36.13476,36.13476,0,0,1-36.1387-36.1328V180.45461a36.1358,36.1358,0,0,1,36.1387-36.1362H241.6797a36.13077,36.13077,0,0,1,36.1328,36.1362Z" transform="translate(0 -0.00001)" fill="url(#radial-gradient)"/>
              <g>
                <path d="M191.0371,167.42141a64.24479,64.24479,0,0,0-55.2402,97.0498l-8.0996,32.6612,32.1963-9.2705a64.24685,64.24685,0,1,0,31.1435-120.4405Zm.7266,117.8272a53.06906,53.06906,0,0,1-30.2178-9.3999l-18.333,5.2837,4.6855-18.8887a53.33409,53.33409,0,1,1,43.8653,23.0049Z" transform="translate(0 -0.00001)" fill="url(#radial-gradient-2)"/>
                <path d="M174.794,226.58011q1.119-1.28535,2.2314-2.56981c1.252-1.45359,3.126-2.853,3.2227-4.94239a14.60583,14.60583,0,0,0-1.3311-5.8271c-.4561-1.17051-.9248-2.3384-1.375-3.5176-.8115-2.1372-1.8603-5.1284-3.0391-6.3814a5.6959,5.6959,0,0,0-6.5-1.0117s-12.6064,6.0586-8.7246,18.1826c0,0,7.5147,34.1822,45.3389,41.2134,0,0,13.5732,1.9424,17.209-6.3047a14.53868,14.53868,0,0,0,1.1875-6.2143c-.1299-1.878-1.4531-3.1216-3-4.0147-1.9932-1.14011-3.7656-2.2085-6.0362-3.331-1.9707-.9668-4.2353-2.4029-6.5029-1.7784-1.6621.4605-2.8554,1.979-3.9804,3.1861-1.4698,1.5556-2.9717,3.0937-4.4561,4.6401C199.0381,247.90921,179.8838,240.875,174.794,226.58011Z" transform="translate(0 -0.00001)" fill="url(#radial-gradient-3)"/>
              </g>
            </g>
          </g>
          <g>
            <polygon points="715.224 393.225 560.733 547.707 320.337 307.321 343.893 172.342 474.831 152.838 715.224 393.225" fill="url(#linear-gradient-3)" style="mix-blend-mode: multiply"/>
            <g>
              <path d="M487.959,284.107a36.14056,36.14056,0,0,1-36.1338,36.1328H348.1719a36.13619,36.13619,0,0,1-36.1338-36.1328V180.458a36.14012,36.14012,0,0,1,36.1338-36.144H451.8252a36.14449,36.14449,0,0,1,36.1338,36.144Z" transform="translate(0 -0.00001)" fill="url(#radial-gradient-4)"/>
              <g>
                <path d="M425.459,165.93951H374.5391a40.87928,40.87928,0,0,0-40.87991,40.8833V257.7393a40.87608,40.87608,0,0,0,40.87991,40.874H425.459a40.87415,40.87415,0,0,0,40.8769-40.874V206.82281A40.87735,40.87735,0,0,0,425.459,165.93951Zm28.1426,86.9116a33.02989,33.02989,0,0,1-33.0283,33.0308H379.4248a33.02865,33.02865,0,0,1-33.0342-33.0308v-41.1484a33.03657,33.03657,0,0,1,33.0342-33.0313h41.1485a33.03781,33.03781,0,0,1,33.0283,33.0313Z" transform="translate(0 -0.00001)" fill="#fff"/>
                <path d="M401.7774,197.56351a34.9453,34.9453,0,1,0,34.9453,34.94479A34.94326,34.94326,0,0,0,401.7774,197.56351Zm0,55.96879a21.02515,21.02515,0,1,1,21.0234-21.024A21.02609,21.02609,0,0,1,401.7774,253.5323Z" transform="translate(0 -0.00001)" fill="#fff"/>
                <circle cx="434.3035" cy="197.01615" r="8.8862" fill="#fff"/>
              </g>
            </g>
          </g>
          <g>
            <polygon points="924.724 392.225 770.233 546.707 529.837 306.321 553.393 171.342 684.331 151.838 924.724 392.225" fill="url(#linear-gradient-4)" style="mix-blend-mode: multiply"/>
            <g>
              <path d="M698.10549,284.0977a36.14265,36.14265,0,0,1-36.1328,36.1406H558.32229a36.13928,36.13928,0,0,1-36.1377-36.1406V180.44881a36.13262,36.13262,0,0,1,36.1377-36.1328h103.6504a36.136,36.136,0,0,1,36.1328,36.1328Z" transform="translate(0 -0.00001)" fill="#fff"/>
              <g>
                <path d="M676.25,248.23051c0,16.6641-5.69919,30.1699-22.3535,30.1699H568.1738c-16.663,0-24.13861-13.5058-24.13861-30.1699v-31.9058c0-16.664,6.76661-30.16741,23.4267-30.16741h87.1367c16.6641,0,21.6514,13.50341,21.6514,30.16741Z" transform="translate(0 -0.00001)" fill="url(#radial-gradient-5)"/>
                <g>
                  <polygon points="596.894 214.252 632.907 233.05 596.894 251.841 596.894 214.252" fill="#fff"/>
                  <polygon points="596.894 214.538 628.215 235.49 632.907 233.05 599.676 215.708 596.894 214.5 596.894 214.538" fill="#e8e0e0"/>
                </g>
              </g>
            </g>
          </g>
          <g>
            <polygon points="505.411 595.88 350.921 750.362 110.524 509.977 134.08 374.998 265.019 355.493 505.411 595.88" fill="url(#linear-gradient-5)" style="mix-blend-mode: multiply"/>
            <g>
              <path d="M277.8125,486.7832a36.13166,36.13166,0,0,1-36.1328,36.1329H138.0254a36.13166,36.13166,0,0,1-36.1328-36.1329V383.1343a36.1409,36.1409,0,0,1,36.1328-36.1411H241.6797a36.1409,36.1409,0,0,1,36.1328,36.1411Z" transform="translate(0 -0.00001)" fill="#fff"/>
              <g>
                <circle cx="189.85107" cy="434.95434" r="59.08423" fill="#bc081c"/>
                <g id="UG8QpP">
                  <path d="M183.2764,462.58109a19.47115,19.47115,0,0,0,20.1328,5.53125,41.106,41.106,0,0,0,4.3457-1.583,26.99611,26.99611,0,0,0,7.5635-4.78027c6.3466-5.78906,9.7988-13.07906,11.4023-21.36326,2.083-10.7696.1924-20.8125-6.6103-29.4483-4.1338-5.247-9.9688-8.6904-16.2032-10.8652a42.09365,42.09365,0,0,0-26.498-.5518,39.029,39.029,0,0,0-7.1524,3.1387,35.09546,35.09546,0,0,0-16.6787,20.7783,41.837,41.837,0,0,0-1.3056,7.3028,31.072,31.072,0,0,0,3.4375,17.1054c.4248.8379.9619,1.6055,1.3633,2.4532a14.9253,14.9253,0,0,0,4.164,5.3613,4.44607,4.44607,0,0,0,2.9063,1.1152c1.4902-.1035,1.8632-1.5332,2.2734-2.7666a40.13712,40.13712,0,0,0,.9023-4.1953,3.40754,3.40754,0,0,0-.4892-3.167c-6.2744-8.9101-4.1192-23.3369,3.6103-30.5625,7.0088-6.5371,14.959-8.4512,23.8623-7.1894a23.173,23.173,0,0,1,18.1123,13.8076,30.51359,30.51359,0,0,1,1.7217,10.4765,32.15094,32.15094,0,0,1-2.497,13.2803,23.478,23.478,0,0,1-7.1612,9.8526c-4.8154,3.63472-14.9316,5.21187-16.9697-2.3545a14.59516,14.59516,0,0,1-.1865-6.167c.9521-4.752,2.7734-9.2637,3.8681-13.9678a15.42335,15.42335,0,0,0,.2793-7.5938c-.8056-3.0205-2.6826-4.9716-5.8183-5.3955a8.65114,8.65114,0,0,0-8.4033,3.1748c-4.043,5.4151-4.5577,11.6065-2.5723,17.9805a6.97705,6.97705,0,0,1,.2236,3.9746c-1.9092,7.7364-3.5713,15.5342-5.5586,23.24514a53.65,53.65,0,0,0-1.5527,16.01956,24.163,24.163,0,0,0,.4473,4.4726c.2255.9834.5879,2.3867,1.5517,2.9024,1.334.706,2.4658-.9961,3.0928-1.919a51.93757,51.93757,0,0,0,5.8672-11.8789c.9502-2.69822,1.6904-5.46287,2.4111-8.23338C181.4131,469.59769,182.8184,464.5723,183.2764,462.58109Z" transform="translate(0 -0.00001)" fill="#fff" fill-rule="evenodd"/>
                </g>
              </g>
            </g>
          </g>
          <g>
            <polygon points="718.077 598.214 563.587 752.696 323.191 512.311 346.747 377.332 477.685 357.827 718.077 598.214" fill="url(#linear-gradient-6)" style="mix-blend-mode: multiply"/>
            <g>
              <path d="M487.96,486.7774a36.12993,36.12993,0,0,1-36.1319,36.1347H348.1758a36.133,36.133,0,0,1-36.1377-36.1347V383.1299a36.13389,36.13389,0,0,1,36.1377-36.1328H451.8281A36.13081,36.13081,0,0,1,487.96,383.1299Z" transform="translate(0 -0.00001)" fill="url(#radial-gradient-6)"/>
              <path d="M447.2988,395.3545h16.2286V369.8467H439.207s-15.29-.3789-25.039,12.2901c0,0-6.6387,6.2597-6.7403,24.5888h-.0048v19.1309H383.3848v27.0849h24.0381v69.9707h27.7246V452.9414h23.8506l3.3242-27.0849H435.1475V406.7256h-.0069C435.208,404.5889,436.1592,395.1621,447.2988,395.3545Z" transform="translate(0 -0.00001)" fill="#fff"/>
            </g>
          </g>
          <g>
            <polygon points="924.744 594.881 770.254 749.363 529.858 508.978 553.413 373.999 684.352 354.494 924.744 594.881" fill="url(#linear-gradient-7)" style="mix-blend-mode: multiply"/>
            <g>
              <path d="M698.10549,486.7852a36.13535,36.13535,0,0,1-36.1328,36.1328H558.31249a36.13,36.13,0,0,1-36.1279-36.1328V383.1328a36.13467,36.13467,0,0,1,36.1279-36.142h103.6602a36.14006,36.14006,0,0,1,36.1328,36.142Z" transform="translate(0 -0.00001)" fill="url(#radial-gradient-7)"/>
              <g>
                <path d="M579.24509,395.8467c.22071-.4975.4649-.978.7012-1.4643a32.42307,32.42307,0,0,1,5.6602-8.0918,29.83959,29.83959,0,0,1,6.6386-5.1568,31.72278,31.72278,0,0,1,6.6846-2.8613,34.81564,34.81564,0,0,1,5.835-1.2358,43.2604,43.2604,0,0,1,5.74511-.2935,43.97375,43.97375,0,0,1,5.68849.3584,35.57477,35.57477,0,0,1,6.0224,1.4282,31.69582,31.69582,0,0,1,6.7569,3.147,30.01975,30.01975,0,0,1,6.582,5.5439,34.181,34.181,0,0,1,5.4785,8.6065c2.6133,5.8555,1.9346,16.4599,1.3975,24.9775-.086,1.3496-.1641,2.6592-.2315,3.9121l-.0234.5303.3457.4082a6.48237,6.48237,0,0,0,4.5293,1.6943h.0957a12.855,12.855,0,0,0,3.8847-.7392,33.96132,33.96132,0,0,1,3.4209-1.2412,5.44024,5.44024,0,0,1,4.3487,1.2988c.82611.958-.085,2.207-.8487,2.8154a14.07683,14.07683,0,0,1-3.6523,1.9707c-.4531.1758-1.0352.3594-1.708.5782-2.9512.9326-7.419,2.3505-8.917,5.8847-.83689,1.9971-.6172,4.3438.6904,6.9942.5303,1.2441,8.9678,20.23825,27.9268,23.35934a.77343.77343,0,0,1-.07809.29981c-.32331.75781-2.37021,3.37011-15.07041,5.333-2.0019.31055-2.4873,2.53907-3.0478,5.12985-.2031.9258-.4121,1.8633-.7012,2.8311-.0849.2939-.1015.3115-.4121.3115h-.1484a14.136,14.136,0,0,1-2.41409-.3115,37.5195,37.5195,0,0,0-7.43461-.7803,32.72445,32.72445,0,0,0-5.3955.4522c-3.8847.6513-7.0507,2.8906-10.4033,5.2549a52.86586,52.86586,0,0,1-6.3672,4.0468,21.81,21.81,0,0,1-7.8496,2.3301c-.6152.0566-1.2324.0684-1.8379.0967a23.91109,23.91109,0,0,1-8.5996-1.1153,29.803,29.803,0,0,1-6.832-3.5449c-.8818-.5879-1.7471-1.2031-2.61229-1.8134-3.35261-2.3643-6.51951-4.6036-10.40431-5.2549a32.67494,32.67494,0,0,0-5.3936-.4522,36.92811,36.92811,0,0,0-7.4306.8262,15.51847,15.51847,0,0,1-2.4092.3672c-.4629,0-.4688-.0235-.5654-.3672-.293-.9678-.4913-1.9219-.6954-2.8506-.5712-2.60156-1.0576-4.834-3.0478-5.13964-12.7109-1.96289-14.7578-4.58594-15.0801-5.33789a1.56672,1.56672,0,0,1-.0791-.31153c18.9707-3.12109,27.39551-22.10354,27.9278-23.35934,1.3056-2.6387,1.538-4.9971.6904-6.9942-1.499-3.5342-5.9551-4.9521-8.9131-5.8847-.6777-.2188-1.2598-.4024-1.7022-.5782-1.747-.6894-7.10739-3.2041-3.624-5.3496a4.22242,4.22242,0,0,1,2.4658-.6972,9.06616,9.06616,0,0,1,2.6407.8437,15.34871,15.34871,0,0,0,5.3652,1.1152c3.29791,0,4.7617-1.5351,4.91991-1.7109l.34479-.4082-.0167-.5303c-.0732-1.2431-.1474-2.5625-.2382-3.9052C577.31149,412.2871,576.64449,401.6993,579.24509,395.8467Zm14.6739-18.9736a33.1293,33.1293,0,0,0-9.5049,6.3047,35.37493,35.37493,0,0,0-7.94529,11.417c-2.918,6.5361-2.22861,17.5459-1.67971,26.3925l.01171.0176c.05759.9414.11819,1.9336.17479,2.9004a5.18209,5.18209,0,0,1-2.1377.3965,12.531,12.531,0,0,1-4.4434-.9678,11.1756,11.1756,0,0,0-3.7832-1.0215,7.25376,7.25376,0,0,0-3.7041,1.0674,5.45912,5.45912,0,0,0-2.7588,3.5459,4.90088,4.90088,0,0,0,1.85941,4.586,16.06546,16.06546,0,0,0,4.85839,2.7871c.5537.2197,1.209.4238,1.8985.6435,2.4209.7754,6.0732,1.9346,7.03611,4.1738.47359,1.1358.27049,2.629-.62891,4.4444-.0156.0439-.03909.0898-.0557.1474a43.07644,43.07644,0,0,1-13.4756,16.5518,30.69448,30.69448,0,0,1-6.0224,3.27734,59.37928,59.37928,0,0,1-5.8799,1.61719c-1.583.44336-2.9014,1.47656-2.794,3.28613a3.96669,3.96669,0,0,0,.3174,1.34082c.62211,1.458,2.0576,2.69727,4.416,3.78809a50.597,50.597,0,0,0,12.751,3.3252,16.04293,16.04293,0,0,1,.7803,2.81643c.2031.9834.42481,1.9951.7461,3.0644a3.34442,3.34442,0,0,0,3.5,2.5606,17.08319,17.08319,0,0,0,2.9912-.4219,34.349,34.349,0,0,1,6.8486-.7773,29.74859,29.74859,0,0,1,4.8965.4199c3.1895.5312,5.9483,2.4707,9.1309,4.7275.2783.1865.5449.3779.8154.5703a49.51422,49.51422,0,0,0,6.1289,3.8057,25.333,25.333,0,0,0,7.6397,2.4209,31.88831,31.88831,0,0,0,4.6201.2314,29.25542,29.25542,0,0,0,5.0722-.4355,25.88629,25.88629,0,0,0,7.3956-2.7363q1.60395-.8673,3.121-1.8955a32.17171,32.17171,0,0,0,2.8457-1.961v-.0058c3.1944-2.251,5.9424-4.1905,9.1368-4.7217a29.69288,29.69288,0,0,1,4.8925-.4199,33.93919,33.93919,0,0,1,6.8467.7314,16.32839,16.32839,0,0,0,3.002.3662h.1484a3.30129,3.30129,0,0,0,3.3467-2.5107c.3174-1.0518.5381-2.0352.7471-3.041a15.47367,15.47367,0,0,1,.7861-2.79888,50.49159,50.49159,0,0,0,12.7402-3.32031c2.3457-1.09668,3.793-2.33008,4.416-3.77734a4.12771,4.12771,0,0,0,.3223-1.34571,3.04942,3.04942,0,0,0-2.5517-3.18261c-17.4317-2.87891-25.293-20.78615-25.6143-21.54985-.0283-.0576-.0508-.1035-.0684-.1474-.8994-1.8154-1.10249-3.3086-.6162-4.4444.9502-2.2392,4.6026-3.3984,7.0235-4.1738.7011-.2197,1.3574-.4297,1.8994-.6435a14.65443,14.65443,0,0,0,5.208-3.1211,4.91091,4.91091,0,0,0,1.584-3.5635c-.0625-3.3867-3.4043-5.2363-6.3789-5.3203a12.593,12.593,0,0,0-4.5401.9941,13.04438,13.04438,0,0,1-4.1797,1.0049,4.79545,4.79545,0,0,1-1.8027-.3955c.0547-.8115.1006-1.6494.15821-2.5225l.02739-.3798c.5488-8.8545,1.25-19.8643-1.669-26.4087a35.59075,35.59075,0,0,0-7.98339-11.4537,33.07693,33.07693,0,0,0-9.53321-6.3051,37.83348,37.83348,0,0,0-11.4736-2.9663c-1.5088-.1465-3.0694-.2657-4.5801-.2657a43.57251,43.57251,0,0,0-10.0029,1.1514A36.665,36.665,0,0,0,593.919,376.8731Z" transform="translate(0 -0.00001)" fill="#020202"/>
                <path d="M657.14839,473.90335c12.7002-1.96289,14.7471-4.57519,15.07041-5.333a.77343.77343,0,0,0,.07809-.29981c-18.959-3.12109-27.3965-22.11524-27.9268-23.35934-1.3076-2.6504-1.52729-4.9971-.6904-6.9942,1.498-3.5342,5.9658-4.9521,8.917-5.8847.6728-.2188,1.2549-.4024,1.708-.5782a14.07683,14.07683,0,0,0,3.6523-1.9707c.7637-.6084,1.67481-1.8574.8487-2.8154a5.44024,5.44024,0,0,0-4.3487-1.2988,33.96132,33.96132,0,0,0-3.4209,1.2412,12.855,12.855,0,0,1-3.8847.7392h-.0957a6.48237,6.48237,0,0,1-4.5293-1.6943l-.3457-.4082.0234-.5303c.0674-1.2529.1455-2.5625.2315-3.9121.5371-8.5176,1.2158-19.122-1.3975-24.9775a34.181,34.181,0,0,0-5.4785-8.6065,30.01975,30.01975,0,0,0-6.582-5.5439,31.69582,31.69582,0,0,0-6.7569-3.147,35.57477,35.57477,0,0,0-6.0224-1.4282,43.97375,43.97375,0,0,0-5.68849-.3584,43.2604,43.2604,0,0,0-5.74511.2935,34.81564,34.81564,0,0,0-5.835,1.2358,31.72278,31.72278,0,0,0-6.6846,2.8613,29.83959,29.83959,0,0,0-6.6386,5.1568,32.42307,32.42307,0,0,0-5.6602,8.0918c-.2363.4863-.48049.9668-.7012,1.4643-2.6006,5.8526-1.9336,16.4404-1.3974,24.9649.0908,1.3427.165,2.6621.2382,3.9052l.0167.5303-.34479.4082c-.15821.1758-1.622,1.7109-4.91991,1.7109a15.34871,15.34871,0,0,1-5.3652-1.1152,9.06616,9.06616,0,0,0-2.6407-.8437,4.22242,4.22242,0,0,0-2.4658.6972c-3.48339,2.1455,1.877,4.6602,3.624,5.3496.4424.1758,1.0245.3594,1.7022.5782,2.958.9326,7.4141,2.3505,8.9131,5.8847.8476,1.9971.6152,4.3555-.6904,6.9942-.53229,1.2558-8.9571,20.23825-27.9278,23.35934a1.56672,1.56672,0,0,0,.0791.31153c.3223.752,2.3692,3.375,15.0801,5.33789,1.9902.30566,2.4766,2.53808,3.0478,5.13964.2041.9287.4024,1.8828.6954,2.8506.0966.3437.1025.3672.5654.3672a15.51847,15.51847,0,0,0,2.4092-.3672,36.92811,36.92811,0,0,1,7.4306-.8262,32.67494,32.67494,0,0,1,5.3936.4522c3.8848.6513,7.0517,2.8906,10.40431,5.2549.86519.6103,1.73049,1.2255,2.61229,1.8134a29.803,29.803,0,0,0,6.832,3.5449,23.91109,23.91109,0,0,0,8.5996,1.1153c.6055-.0283,1.2227-.0401,1.8379-.0967a21.81,21.81,0,0,0,7.8496-2.3301,52.86586,52.86586,0,0,0,6.3672-4.0468c3.3526-2.3643,6.5186-4.6036,10.4033-5.2549a32.72445,32.72445,0,0,1,5.3955-.4522,37.5195,37.5195,0,0,1,7.43461.7803,14.136,14.136,0,0,0,2.41409.3115h.1484c.3106,0,.3272-.0176.4121-.3115.2891-.9678.4981-1.9053.7012-2.8311C654.66109,476.44242,655.14649,474.2139,657.14839,473.90335Z" transform="translate(0 -0.00001)" fill="#fff"/>
              </g>
            </g>
          </g>
          <g>
            <polygon points="506.244 799.048 351.754 953.53 111.358 713.145 134.913 578.166 265.852 558.661 506.244 799.048" fill="url(#linear-gradient-8)" style="mix-blend-mode: multiply"/>
            <g>
              <path d="M277.8145,689.4561a36.1396,36.1396,0,0,1-36.1348,36.1387H138.0303a36.14208,36.14208,0,0,1-36.1377-36.1387V585.8018a36.1364,36.1364,0,0,1,36.1377-36.1328H241.6797a36.13392,36.13392,0,0,1,36.1348,36.1328Z" transform="translate(0 -0.00001)" fill="url(#radial-gradient-8)"/>
              <g clip-path="url(#clip-path-2)">
                <g>
                  <circle cx="189.854" cy="637.63284" r="63.4795" fill="#db4639"/>
                  <polygon points="257.941 681.443 216.615 722.768 149.973 656.128 155.732 619.479 191.3 614.804 257.941 681.443" fill="url(#linear-gradient-9)" style="mix-blend-mode: multiply"/>
                  <path d="M200.9072,633.0967H172.5459v10.1319h16.9893a18.24969,18.24969,0,1,1-17.2012-24.5069,17.91864,17.91864,0,0,1,11.5723,4.2363h.4746l7.4843-7.6064a28.723,28.723,0,0,0-19.5312-7.6563,29.51832,29.51832,0,0,0,0,59.0293,28.31441,28.31441,0,0,0,6.251-.6855,28.71837,28.71837,0,0,0,11.4482-5.417,29.68689,29.68689,0,0,0,8.0381-9.7021,30.11461,30.11461,0,0,0,2.3242-6.0391c.6836-2.6065.5117-5.2295.5117-7.9121Z" transform="translate(0 -0.00001)" fill="#fff"/>
                  <polygon points="259.079 656.128 242.084 673.118 210.393 641.437 227.387 624.434 259.079 656.128" fill="url(#linear-gradient-10)" style="mix-blend-mode: multiply"/>
                  <rect x="218.8652" y="624.41119" width="8.5108" height="25.4297" fill="#fff"/>
                  <rect x="210.4092" y="632.87499" width="25.4287" height="8.5059" fill="#fff"/>
                </g>
              </g>
            </g>
          </g>
          <g>
            <polygon points="715.244 798.048 560.754 952.53 320.358 712.145 343.913 577.166 474.852 557.661 715.244 798.048" fill="url(#linear-gradient-11)" style="mix-blend-mode: multiply"/>
            <g>
              <path d="M487.958,689.459a36.12594,36.12594,0,0,1-36.1328,36.1328H348.1797A36.13283,36.13283,0,0,1,312.041,689.459V585.8106a36.14228,36.14228,0,0,1,36.1387-36.1387H451.8252a36.1354,36.1354,0,0,1,36.1328,36.1387Z" transform="translate(0 -0.00001)" fill="#007bb5"/>
              <g>
                <path d="M338.40235,616.2725H364.8067v84.9414H338.40235Zm13.20605-42.2236a15.3066,15.3066,0,1,1-15.30077,15.3183,15.31811,15.31811,0,0,1,15.30077-15.3183" transform="translate(0 -0.00001)" fill="#fff"/>
                <path d="M381.3633,616.2725h25.3271v11.6201h.3623c3.5215-6.6846,12.1348-13.7178,24.9756-13.7178,26.7354,0,31.6719,17.586,31.6719,40.4512v46.5879H437.3096V659.9073c0-9.8496-.1699-22.5274-13.7237-22.5274-13.7343,0-15.832,10.7432-15.832,21.8213v42.0127H381.3633Z" transform="translate(0 -0.00001)" fill="#fff"/>
              </g>
            </g>
          </g>
          <g>
            <polygon points="924.744 797.548 770.254 952.03 529.858 711.645 553.413 576.666 684.352 557.161 924.744 797.548" fill="url(#linear-gradient-12)" style="mix-blend-mode: multiply"/>
            <g>
              <path d="M698.10739,689.4619a36.14393,36.14393,0,0,1-36.1435,36.1329H558.32619a36.144,36.144,0,0,1-36.1436-36.1329V585.8135a36.14451,36.14451,0,0,1,36.1436-36.1445h103.6377a36.14448,36.14448,0,0,1,36.1435,36.1445Z" transform="translate(0 -0.00001)" fill="#1da1f2"/>
              <path d="M589.19429,688.6084c46.2383,0,71.5196-38.3115,71.5196-71.5254,0-1.0859-.0166-2.1709-.0742-3.2461a50.98417,50.98417,0,0,0,12.53611-13.0166,50.36847,50.36847,0,0,1-14.42971,3.9571,25.28937,25.28937,0,0,0,11.05471-13.9043,50.59054,50.59054,0,0,1-15.96391,6.1074,25.13879,25.13879,0,0,0-43.4775,17.1836,25.70082,25.70082,0,0,0,.6445,5.7412,71.42332,71.42332,0,0,1-51.8135-26.2666,25.15008,25.15008,0,0,0,7.7872,33.5537,24.94381,24.94381,0,0,1-11.3887-3.1484c-.0059.1133-.0059.2138-.0059.3213a25.14286,25.14286,0,0,0,20.1582,24.6425,25.19345,25.19345,0,0,1-6.6152.8877,24.84765,24.84765,0,0,1-4.7266-.4638,25.1669,25.1669,0,0,0,23.4776,17.4677,50.404,50.404,0,0,1-31.2198,10.7608,50.96658,50.96658,0,0,1-5.9931-.3516,71.08562,71.08562,0,0,0,38.5302,11.2998" transform="translate(0 -0.00001)" fill="#fff"/>
            </g>
          </g>
        </g>
      </g>
    </g>
  </g>
</svg>
